<svg width="79" height="60" viewBox="0 0 79 60" fill="none" xmlns="http://www.w3.org/2000/svg">
<g clip-path="url(#clip0)">
<path d="M51.3312 8.77858L67.4356 3.43701L69.9279 10.951L53.8234 16.2926L51.3312 8.77858Z" fill="#EFD4A4"/>
<path d="M52.9401 4.51453L63.1169 1.13904L67.5275 14.4365L57.3506 17.812L52.9401 4.51453Z" fill="#EFD4A4"/>
<path d="M2.70623 24.9066L18.8107 19.5651L21.3029 27.0791L5.1985 32.4206L2.70623 24.9066Z" fill="#EFD4A4"/>
<path d="M4.31508 20.6426L14.4919 17.2671L18.9025 30.5646L8.72564 33.9401L4.31508 20.6426Z" fill="#EFD4A4"/>
<path d="M9.71533 46.0385L25.8198 40.6969L28.312 48.2109L12.2076 53.5525L9.71533 46.0385Z" fill="#EFD4A4"/>
<path d="M11.3231 41.7711L21.5 38.3956L25.9106 51.6931L15.7337 55.0686L11.3231 41.7711Z" fill="#EFD4A4"/>
<path d="M14.8054 28.2828L59.4764 13.4662L62.9804 24.0304L18.3094 38.8471L14.8054 28.2828Z" fill="#EFD4A4"/>
<path d="M50.5332 9.25158L57.3307 6.99695L64.5908 28.8856L57.7933 31.1402L50.5332 9.25158Z" fill="#EFD4A4"/>
<path d="M12.1435 21.9847L18.9411 19.7301L28.2879 47.9101L21.4904 50.1647L12.1435 21.9847Z" fill="#EFD4A4"/>
<path d="M24.4528 36.619L56.2137 26.0845L58.5665 33.178L26.8056 43.7125L24.4528 36.619Z" fill="#E3A46A"/>
<path d="M60.4898 16.7061L67.6055 14.3459L68.8189 18.0043L61.7033 20.3644L60.4898 16.7061Z" fill="#E3A46A"/>
<path d="M66.646 12.0504L69.9246 10.9629L70.9986 14.2007L67.7199 15.2882L66.646 12.0504Z" fill="#E3A46A"/>
<path d="M16.6039 35.3265L9.48822 37.6866L8.27481 34.0283L15.3905 31.6681L16.6039 35.3265Z" fill="#E3A46A"/>
<path d="M8.99541 34.7646L5.71674 35.8521L4.6428 32.6142L7.92147 31.5267L8.99541 34.7646Z" fill="#E3A46A"/>
<path d="M64.2628 38.7496L74.5663 35.3322L75.8344 39.1555L65.531 42.573L64.2628 38.7496Z" fill="#E3A46A"/>
<path d="M15.5021 55.1418L25.9224 51.6855L26.9964 54.9234L16.576 58.3796L15.5021 55.1418Z" fill="#E3A46A"/>
<path d="M59.8696 37.7043L63.6417 36.4531L64.6072 39.3643L60.8352 40.6154L59.8696 37.7043Z" fill="#E3A46A"/>
<path d="M57.6874 31.1143L58.7489 30.7622L61.8549 40.1264L60.7933 40.4785L57.6874 31.1143Z" fill="#E3A46A"/>
<path d="M25.6992 41.7242L26.7607 41.3721L29.8667 50.7363L28.8052 51.0884L25.6992 41.7242Z" fill="#E3A46A"/>
<path d="M25.1156 49.2747L28.9461 48.0042L29.8623 50.7665L26.0318 52.037L25.1156 49.2747Z" fill="#E3A46A"/>
<path d="M73.7492 33.1185L76.9695 32.0504L78.0434 35.2883L74.8232 36.3564L73.7492 33.1185Z" fill="#E3A46A"/>
<path d="M11.5011 53.7581L14.9518 52.6135L16.0354 55.8805L12.5847 57.025L11.5011 53.7581Z" fill="#E3A46A"/>
<path d="M58.3402 29.9104L74.4446 24.5688L76.9369 32.0829L60.8325 37.4244L58.3402 29.9104Z" fill="#EFD4A4"/>
<path d="M59.948 25.6431L70.1249 22.2676L74.5354 35.5651L64.3586 38.9406L59.948 25.6431Z" fill="#EFD4A4"/>
</g>
<defs>
<clipPath id="clip0">
<rect width="68.9734" height="40.0871" transform="matrix(-0.949152 0.314818 0.314818 0.949152 66.3599 0.0633545)" fill="white"/>
</clipPath>
</defs>
</svg>
