<svg width="175" height="173" viewBox="0 0 175 173" fill="none" xmlns="http://www.w3.org/2000/svg">
<g clip-path="url(#clip0)">
<path d="M114.031 64.6842L121.169 62.7737L117.524 49.1528L110.385 51.0634L114.031 64.6842Z" fill="#3A160A"/>
<path d="M105.158 60.1091L119.426 56.2906L117.516 49.1518L103.247 52.9703L105.158 60.1091Z" fill="#3A160A"/>
<path d="M95.9404 54.228L110.208 50.4095L104.769 30.0845L90.5009 33.903L95.9404 54.228Z" fill="#AC3C00"/>
<path d="M77.9224 67.397L105.164 60.1064L99.6083 39.3467L72.3666 46.6372L77.9224 67.397Z" fill="#C15C26"/>
<path d="M61.7416 64.0746L76.0097 60.2561L70.4539 39.4964L56.1858 43.3149L61.7416 64.0746Z" fill="#AC3C00"/>
<path d="M72.5246 75.7867L114.034 64.6777L112.3 58.1958L70.7898 69.3048L72.5246 75.7867Z" fill="#C15C26"/>
<path d="M78.7721 99.1406L106.661 91.6769L96.7102 54.4949L68.8213 61.9586L78.7721 99.1406Z" fill="#C15C26"/>
<path d="M80.5089 105.62L108.398 98.1561L106.663 91.6742L78.7741 99.1379L80.5089 105.62Z" fill="#AF5120"/>
<path d="M107.095 98.5037L114.881 96.4199L113.146 89.9379L105.36 92.0217L107.095 98.5037Z" fill="#AF5120"/>
<path d="M96.7617 54.7112L103.901 52.8007L101.99 45.6618L94.8512 47.5723L96.7617 54.7112Z" fill="#3A160A"/>
<path d="M76.0016 60.2655L83.1405 58.355L81.2299 51.2161L74.0911 53.1266L76.0016 60.2655Z" fill="#3A160A"/>
<path d="M96.3099 76.3736L115.766 71.1669L113.855 64.028L94.3994 69.2348L96.3099 76.3736Z" fill="#AF5120"/>
<path d="M55.0604 91.3851L59.7938 90.1183L53.7081 67.3782L48.9746 68.645L55.0604 91.3851Z" fill="white"/>
<path opacity="0.25" d="M102.576 133.581C76.5316 140.51 49.8009 125.007 42.8722 98.9619L37.3878 78.3174C30.4565 52.263 45.96 25.5323 72.0048 18.6037C98.0495 11.675 124.78 27.1786 131.709 53.2233L137.193 73.8677C144.125 99.9221 128.631 126.65 102.576 133.581Z" fill="url(#paint0_linear)"/>
<path d="M38.9143 106.922L141.033 79.3684L139.952 75.3617L37.8332 102.916L38.9143 106.922Z" fill="white"/>
<path d="M123.752 84.1055L141.159 79.4086L140.078 75.4018L122.67 80.0988L123.752 84.1055Z" fill="#BCB1AF"/>
<path d="M109.389 87.4865L20.2559 111.837L34.5369 164.112L123.671 139.761L109.389 87.4865Z" fill="#EFEFEF"/>
<path d="M134.337 145.793L45.2063 170.153L34.5466 164.109L123.678 139.749L134.337 145.793Z" fill="#686868"/>
<path d="M134.317 146.099L119.504 91.8762L109.369 87.7926L123.66 140.064L134.317 146.099Z" fill="#3D3D3D"/>
<path d="M121.434 95.9827L112.26 98.4889L120.145 127.351L129.319 124.845L121.434 95.9827Z" fill="#BCB1AF"/>
<path d="M93.5646 101.43L40.2292 116.001L49.0682 148.355L102.404 133.784L93.5646 101.43Z" fill="#BCB1AF"/>
<path d="M90.8033 104.527L44.0274 117.306L51.5224 144.741L98.2982 131.962L90.8033 104.527Z" fill="#EFEFEF"/>
<path d="M67.0745 110.75L71.7142 127.013L80.2982 129.519L82.664 136.585" stroke="#BCB1AF" stroke-width="3" stroke-miterlimit="10"/>
<path d="M150.625 76.5115L115.608 86.0779L126.41 125.619L161.427 116.052L150.625 76.5115Z" fill="#EFEFEF"/>
<path d="M171.328 125.58L136.311 135.146L126.41 125.619L161.425 116.043L171.328 125.58Z" fill="#686868"/>
<path d="M171.259 125.858L161.022 86.5668L150.674 76.5395L161.422 116.033L171.259 125.858Z" fill="#BCB1AF"/>
<path opacity="0.5" d="M33.0905 141.514L28.6917 142.716L34.5448 164.141L38.9436 162.939L33.0905 141.514Z" fill="#BCB1AF"/>
<path opacity="0.5" d="M39.8259 148.713L35.4271 149.915L38.9848 162.938L43.3836 161.736L39.8259 148.713Z" fill="#BCB1AF"/>
<path opacity="0.5" d="M45.8155 153.183L41.4167 154.385L43.4222 161.726L47.821 160.524L45.8155 153.183Z" fill="#BCB1AF"/>
<path opacity="0.5" d="M51.2306 155.549L46.8318 156.751L47.857 160.504L52.2558 159.302L51.2306 155.549Z" fill="#BCB1AF"/>
<path opacity="0.5" d="M132.477 108.059L130.664 101.423L125.773 102.759L120.88 84.8451L115.622 86.2814L126.359 125.581L131.249 124.245L131.616 124.145L136.324 122.859L136.507 122.809L141.571 121.425L137.542 106.676L132.477 108.059Z" fill="#BCB1AF"/>
<path d="M154.852 120.026L150.073 121.279L152.399 123.91L157.18 122.666L154.852 120.026Z" fill="#3D3D3D"/>
<path d="M159.377 125.963L154.655 127.16L156.078 128.803L160.848 127.593L159.377 125.963Z" fill="#3D3D3D"/>
</g>
<defs>
<linearGradient id="paint0_linear" x1="44.137" y1="62.3257" x2="178.028" y2="78.6569" gradientUnits="userSpaceOnUse">
<stop stop-color="white"/>
<stop offset="0.999" stop-color="#0B1642"/>
</linearGradient>
<clipPath id="clip0">
<path d="M0.148041 38.2345L137.562 0.693747L174.302 135.176L36.8876 172.716L0.148041 38.2345Z" fill="white"/>
</clipPath>
</defs>
</svg>
