<svg width="247" height="193" viewBox="0 0 247 193" fill="none" xmlns="http://www.w3.org/2000/svg">
<path d="M89.2677 129.571L94.301 147.902L103.028 145.506L97.9946 127.175L89.2677 129.571Z" fill="#FF2E1B"/>
<path d="M81.4422 135.254L84.855 147.684L93.5819 145.288L90.1691 132.858L81.4422 135.254Z" fill="#FF2E1B"/>
<path d="M74.9418 138.921L77.4609 146.433L86.1908 144.033L83.6717 136.522L74.9418 138.921Z" fill="#FF2E1B"/>
<path opacity="0.19" d="M38.6459 148.907L42.8627 155.956L86.1908 144.033L81.974 136.984L38.6459 148.907Z" fill="#FF2E1B"/>
<path d="M70.1004 131.868L67.2736 132L67.3936 134.558L70.2204 134.425L70.1004 131.868Z" fill="#FF2E1B"/>
<path d="M70.9645 150.163L68.1377 150.296L68.2577 152.853L71.0845 152.721L70.9645 150.163Z" fill="#DDBA28"/>
<path opacity="0.18" d="M29.8834 144.398L27.0565 144.53L27.1765 147.088L30.0034 146.955L29.8834 144.398Z" fill="#DDBA28"/>
<path d="M48.6124 144.571L45.7855 144.704L45.9055 147.261L48.7324 147.128L48.6124 144.571Z" fill="#FF2E1B"/>
<path d="M98.966 135.361L81.5911 140.137L82.2962 142.702L99.6711 137.925L98.966 135.361Z" fill="#DDBA28"/>
<path d="M79.8834 140.849L77.2511 141.573L77.9562 144.138L80.5885 143.414L79.8834 140.849Z" fill="#DDBA28"/>
<g clip-path="url(#clip0)">
<path d="M186.595 64.7824L193.734 62.8718L190.088 49.251L182.949 51.1615L186.595 64.7824Z" fill="#3A160A"/>
<path d="M177.722 60.2073L191.99 56.3888L190.08 49.2499L175.812 53.0684L177.722 60.2073Z" fill="#3A160A"/>
<path d="M168.505 54.3262L182.773 50.5077L177.333 30.1827L163.065 34.0012L168.505 54.3262Z" fill="#AC3C00"/>
<path d="M150.487 67.4951L177.728 60.2046L172.172 39.4449L144.931 46.7354L150.487 67.4951Z" fill="#C15C26"/>
<path d="M134.306 64.1727L148.574 60.3542L143.018 39.5945L128.75 43.413L134.306 64.1727Z" fill="#AC3C00"/>
<path d="M145.089 75.8849L186.598 64.7759L184.864 58.2939L143.354 69.4029L145.089 75.8849Z" fill="#C15C26"/>
<path d="M151.336 99.2388L179.225 91.775L169.274 54.593L141.385 62.0567L151.336 99.2388Z" fill="#C15C26"/>
<path d="M153.073 105.718L180.962 98.2543L179.227 91.7723L151.338 99.236L153.073 105.718Z" fill="#AF5120"/>
<path d="M179.659 98.6018L187.445 96.5181L185.71 90.0361L177.924 92.1198L179.659 98.6018Z" fill="#AF5120"/>
<path d="M169.326 54.8093L176.465 52.8988L174.554 45.7599L167.415 47.6705L169.326 54.8093Z" fill="#3A160A"/>
<path d="M148.566 60.3637L155.705 58.4531L153.794 51.3143L146.655 53.2248L148.566 60.3637Z" fill="#3A160A"/>
<path d="M168.874 76.4718L188.33 71.265L186.419 64.1261L166.964 69.3329L168.874 76.4718Z" fill="#AF5120"/>
<path d="M127.624 91.4832L132.358 90.2164L126.272 67.4764L121.539 68.7432L127.624 91.4832Z" fill="white"/>
<path opacity="0.25" d="M175.14 133.68C149.096 140.608 122.365 125.105 115.436 99.06L109.952 78.4156C103.021 52.3612 118.524 25.6305 144.569 18.7018C170.614 11.7732 197.344 27.2767 204.273 53.3214L209.757 73.9659C216.689 100.02 201.195 126.748 175.14 133.68Z" fill="url(#paint0_linear)"/>
<path d="M111.478 107.02L213.597 79.4666L212.516 75.4598L110.397 103.014L111.478 107.02Z" fill="white"/>
<path d="M196.316 84.2037L213.723 79.5067L212.642 75.5L195.235 80.1969L196.316 84.2037Z" fill="#BCB1AF"/>
<path d="M181.954 87.5847L92.82 111.935L107.101 164.21L196.235 139.859L181.954 87.5847Z" fill="#EFEFEF"/>
<path d="M206.901 145.891L117.77 170.252L107.111 164.207L196.242 139.847L206.901 145.891Z" fill="#686868"/>
<path d="M206.881 146.197L192.068 91.9743L181.934 87.8907L196.224 140.162L206.881 146.197Z" fill="#3D3D3D"/>
<path d="M193.998 96.0808L184.825 98.587L192.71 127.449L201.883 124.943L193.998 96.0808Z" fill="#BCB1AF"/>
<path d="M166.129 101.528L112.793 116.099L121.632 148.453L174.968 133.882L166.129 101.528Z" fill="#BCB1AF"/>
<path d="M163.367 104.625L116.592 117.404L124.086 144.839L170.862 132.06L163.367 104.625Z" fill="#EFEFEF"/>
<path d="M139.639 110.849L144.278 127.111L152.862 129.617L155.228 136.684" stroke="#BCB1AF" stroke-width="3" stroke-miterlimit="10"/>
<path d="M223.189 76.6097L188.172 86.176L198.975 125.717L233.991 116.151L223.189 76.6097Z" fill="#EFEFEF"/>
<path d="M243.892 125.678L208.875 135.245L198.975 125.717L233.989 116.141L243.892 125.678Z" fill="#686868"/>
<path d="M243.823 125.956L233.586 86.6649L223.238 76.6377L233.986 116.131L243.823 125.956Z" fill="#BCB1AF"/>
<path opacity="0.5" d="M105.655 141.612L101.256 142.814L107.109 164.239L111.508 163.037L105.655 141.612Z" fill="#BCB1AF"/>
<path opacity="0.5" d="M112.39 148.812L107.991 150.013L111.549 163.036L115.948 161.834L112.39 148.812Z" fill="#BCB1AF"/>
<path opacity="0.5" d="M118.38 153.281L113.981 154.483L115.986 161.824L120.385 160.622L118.38 153.281Z" fill="#BCB1AF"/>
<path opacity="0.5" d="M123.795 155.648L119.396 156.849L120.421 160.602L124.82 159.4L123.795 155.648Z" fill="#BCB1AF"/>
<path opacity="0.5" d="M205.041 108.157L203.228 101.521L198.338 102.857L193.444 84.9432L188.186 86.3795L198.923 125.679L203.814 124.343L204.18 124.243L208.888 122.957L209.071 122.907L214.135 121.523L210.106 106.774L205.041 108.157Z" fill="#BCB1AF"/>
<path d="M227.416 120.124L222.637 121.378L224.963 124.008L229.744 122.764L227.416 120.124Z" fill="#3D3D3D"/>
<path d="M231.941 126.061L227.219 127.258L228.642 128.901L233.412 127.691L231.941 126.061Z" fill="#3D3D3D"/>
</g>
<defs>
<linearGradient id="paint0_linear" x1="116.701" y1="62.4238" x2="250.592" y2="78.755" gradientUnits="userSpaceOnUse">
<stop stop-color="white"/>
<stop offset="0.999" stop-color="#0B1642"/>
</linearGradient>
<clipPath id="clip0">
<path d="M72.7122 38.3326L210.126 0.791892L246.866 135.274L109.452 172.814L72.7122 38.3326Z" fill="white"/>
</clipPath>
</defs>
</svg>
